inDegrees=yes
DataType=double
version=3
OpenSimVersion=4.5-2024-07-22-fc2981e9e
endheader
time	pelvis_tx	pelvis_ty	pelvis_tz	pelvis_tilt	pelvis_list	pelvis_rotation	hip_flexion_r	hip_adduction_r	hip_rotation_r	knee_angle_r	ankle_angle_r	subtalar_angle_r	mtp_angle_r	hip_flexion_l	hip_adduction_l	hip_rotation_l	knee_angle_l	ankle_angle_l	subtalar_angle_l	mtp_angle_l	lumbar_extension	lumbar_bending	lumbar_rotation	ground_force_vx	ground_force_vy	ground_force_vz	ground_force_px	ground_force_py	ground_force_pz	ground_force_vx	ground_force_vy	ground_force_vz	ground_force_px	ground_force_py	ground_force_pz	ground_torque_x	ground_torque_y	ground_torque_z	ground_torque_x	ground_torque_y	ground_torque_z	ground_marker_px	ground_marker_py	ground_marker_pz	ground_marker_px	ground_marker_py	ground_marker_pz	ground_marker_px	ground_marker_py	ground_marker_pz	ground_marker_px	ground_marker_py	ground_marker_pz	ground_marker_px	ground_marker_py	ground_marker_pz	ground_marker_px	ground_marker_py	ground_marker_pz	ground_marker_px	ground_marker_py	ground_marker_pz	ground_marker_px	ground_marker_py	ground_marker_pz	ground_marker_px	ground_marker_py	ground_marker_pz	ground_marker_px	ground_marker_py	ground_marker_pz	ground_marker_px	ground_marker_py	ground_marker_pz	ground_marker_px	ground_marker_py	ground_marker_pz	ground_marker_px	ground_marker_py	ground_marker_pz	ground_marker_px	ground_marker_py	ground_marker_pz	ground_marker_px	ground_marker_py	ground_marker_pz	ground_marker_px	ground_marker_py	ground_marker_pz	ground_marker_px	ground_marker_py	ground_marker_pz	ground_marker_px	ground_marker_py	ground_marker_pz	ground_marker_px	ground_marker_py	ground_marker_pz	ground_marker_px	ground_marker_py	ground_marker_pz	ground_marker_px	ground_marker_py	ground_marker_pz	ground_marker_px	ground_marker_py	ground_marker_pz	ground_marker_px	ground_marker_py	ground_marker_pz	ground_marker_px	ground_marker_py	ground_marker_pz	ground_marker_px	ground_marker_py	ground_marker_pz	ground_marker_px	ground_marker_py	ground_marker_pz	ground_marker_px	ground_marker_py	ground_marker_pz	ground_marker_px	ground_marker_py	ground_marker_pz	ground_marker_px	ground_marker_py	ground_marker_pz	ground_marker_px	ground_marker_py	ground_marker_pz	ground_marker_px	ground_marker_py	ground_marker_pz	ground_marker_px	ground_marker_py	ground_marker_pz	ground_marker_px	ground_marker_py	ground_marker_pz	ground_marker_px	ground_marker_py	ground_marker_pz	ground_marker_px	ground_marker_py	ground_marker_pz	ground_marker_px	ground_marker_py	ground_marker_pz	ground_marker_px	ground_marker_py	ground_marker_pz
0.3499999133913044	1.367701864029763	0.9249353145743958	-0.1572956277332975	-2.3959060729718	-0.7697419507602767	-1.982538794862814	-5.10832296112311	5.859972227253628	4.740272189199883	-3.848938018584508	6.562920402392718	1.070250216261357e-09	-5.001221878301513e-09	26.07710807221098	-2.476232218214942	-7.793573660672634	-26.48602283237018	-2.447430575043978	-5.409268422623719e-09	8.68746397642338e-09	-12.13172033662313	2.071826720331794	4.537803258312393	1.25646597909057	197.5393080384425	-3.24410827335361	1.455663480573727	8.238417774856534e-10	-0.1308426686266477	0.8949473414866405	197.5158785970407	-3.417193165770032	1.464305348853511	9.738783815361529e-09	-0.1304045471675958	-6.023362084959536e-09	1.38440421103434	8.243717390571407e-09	2.732690024348583e-09	1.405573137120122	-2.24500259643203e-09	1.46024294500241	0.687660508091851	-0.160221043186043	1.46279314404432	0.6872685036462701	-0.1600163145148374	1.48411571818531	0.6911045501430926	-0.1608956580146421	1.444304784376506	0.6882591847881412	-0.1620756769895718	1.469532503055188	0.6909899842379925	-0.1625231125662601	1.488421017862473	0.6944519324556302	-0.1594688550288086	1.471877753816588	0.6928216509985597	-0.1605727946787233	1.474568191345044	0.6823195167190687	-0.1596394387978918	1.480151923194751	0.6880472247428913	-0.1613086945879983	1.459729510428944	0.6833052358287467	-0.1599906742089538	1.472158606681655	0.6890931699675314	-0.161251235970565	1.481271185479827	0.6915104355726803	-0.161481629396149	1.45821959358543	0.6920011188996318	-0.160060752046867	1.481049427693134	0.6792971893315884	-0.1607665113626974	1.462182055089177	0.6924468522659949	-0.1598059648350738	1.483179429437457	0.6869714368377013	-0.159872240635628	1.462439599240599	0.6920345718706052	-0.1609933274665011	1.45180525982049	0.6929779894477015	-0.1620653309005999	1.465182715920694	0.6900742388209066	-0.1620829133274815	1.487192789763525	0.6889773046690588	-0.1598335661138407	1.466210260700669	0.6902118393846688	-0.1628576583200839	1.461977558663882	0.6890103028051832	-0.1618440319171972	1.485936909104563	0.6936360706762387	-0.160978272239952	1.472143766393067	0.6906640783679117	-0.1612232348252712	1.4797436837602	0.69338628267047	-0.1615357862410647	1.466984787396513	0.6917015071561665	-0.1604977511957572	1.473629745044815	0.6882449115995757	-0.1607862185757805	1.458422352389264	0.6908788859245746	-0.1616690197723558	1.486636303851083	0.6900789728362008	-0.1618846461794354	1.459758866390179	0.6895615260127004	-0.1609056227533944	1.485135400308554	0.6923030423544718	-0.1593889975193163	1.470888522081937	0.6890259914415174	-0.1590764249605524	1.473812704085661	0.6875812096243269	-0.1604590193915993	1.483029478513142	0.6899414385921967	-0.1603755171284412	1.450556433746625	0.6874673533868056	-0.1615383288999052	1.477145014078395	0.6968299916892745	-0.1612113931163262	1.488033938949049	0.6824313450777397	-0.1619285513015561
0.3583332469565217	1.376109304918998	0.9249353145743958	-0.1566779404268586	-2.300008891621745	-0.7052313214903886	-2.450452561712871	-6.417620198538832	5.70840106534059	5.051322702679371	-2.955588880924537	6.687927389795342	5.301493310760266e-10	-5.34421791782477e-09	26.20205954710201	-2.56658739476115	-9.272240592798154	-23.53115558360579	-2.447890578036601	-5.924719904762371e-09	7.409553257732967e-09	-12.17925939515482	1.77758531135147	5.468523753405029	3.632601452279031	207.6101151156649	-3.595549999403298	1.45748228929002	-3.743270289331676e-11	-0.1309772536337739	3.146581471534412	207.308688085333	-3.749071365191508	1.465282355348998	9.193756720697725e-09	-0.1304907959699815	-6.598302087882932e-09	1.502934356603638	7.376825894847358e-09	3.925487241085315e-09	1.522624670973557	-2.664407040955659e-09	1.472483951542255	0.6861900462462219	-0.1600089084123119	1.475487882914364	0.6852630983672305	-0.1599895704775003	1.492898374171197	0.6889452450502419	-0.1609008273064969	1.454853322942506	0.6865911493711729	-0.1619390461898805	1.479732364927495	0.6891403559202581	-0.1625162427263194	1.500049448206943	0.6926274800334886	-0.159523036501613	1.480696340932099	0.6909864618786511	-0.160589359149408	1.482338241637801	0.6813351114513232	-0.15970079276848	1.489360466654737	0.6858727832223556	-0.1615230549433664	1.471399789270024	0.681770525467021	-0.1600020222687805	1.483649781319066	0.6879806566378315	-0.1612223190740635	1.492192599869285	0.6899850145732908	-0.1614643151423131	1.468534153394373	0.6897498441559361	-0.1602602987934395	1.490460575483014	0.67825481072286	-0.1608221167604804	1.47115287683548	0.6904286327995011	-0.1596723910106291	1.490639538717363	0.6857129755692141	-0.1598293831450603	1.475642334406469	0.6904840906639533	-0.1609539209729123	1.46402973276117	0.6910117070484459	-0.1621116744737071	1.475139783547288	0.688261421359964	-0.1621432896815245	1.501145923240519	0.6872845994056282	-0.1596967435997745	1.47674754535361	0.6883963785546334	-0.1627967057489731	1.471986416272236	0.6862550625924914	-0.1618290358048894	1.495570413468551	0.6927366126151911	-0.1609126693336271	1.485549269134128	0.6897096446536808	-0.1611678366965043	1.489037090157601	0.6911845273031261	-0.1618825975496231	1.476126447974888	0.6899882320680596	-0.1603656652390445	1.484837748455544	0.6862006082905107	-0.16077197170953	1.469451748963886	0.6897760114123876	-0.1618368481068072	1.498461376035214	0.6882670223068997	-0.1619882899483883	1.471382576384676	0.6878832243424121	-0.1607818408340832	1.496746695051612	0.6909932182764288	-0.1596070918253071	1.481054559178298	0.6870312372955724	-0.1589372998934208	1.485471324062906	0.685105098992245	-0.1605997853666748	1.494139431579753	0.6882652881821349	-0.1602855667195854	1.461397947181506	0.6861069098214243	-0.1615414078092996	1.488943199281504	0.6955786297841061	-0.1612489108572283	1.501352452429905	0.6813138498483893	-0.162158953979922
0.3666665805217392	1.384294774409476	0.9249353145743958	-0.1560334754960915	-2.198639251741087	-0.6613977980548778	-2.952791030756467	-7.699139115491203	5.552994717435219	5.330764841817487	-2.135659004774979	6.863262000618773	-1.066811195830741e-10	-5.755135165090172e-09	26.26181223470726	-2.675735456245368	-10	-20.55395294043844	-2.476901258908929	-6.199213944594515e-09	5.956324313036538e-09	-12.23987410034466	1.486086174609062	6.389059832525335	6.273784921094204	219.8816231081323	-4.197194387251409	1.458866695032667	-1.07592533280798e-09	-0.1310059691609414	5.689579734999966	219.3665980013955	-4.333256699941603	1.465662834385654	8.785355559986612e-09	-0.1305014717237933	-6.967300385716626e-09	1.631152893754953	6.400360168045249e-09	4.896088447359298e-09	1.649698194012449	-2.892019020794548e-09	1.485360688903117	0.6846988778257385	-0.1598258503946482	1.488421417622119	0.6830659400655205	-0.15998180824495	1.501593346098205	0.6865310159026118	-0.1608079618639175	1.466045202921526	0.6846240579457915	-0.1617565095745502	1.490167730591671	0.6871180712771581	-0.1624176317893611	1.511383377602173	0.690412081843212	-0.1595556382567401	1.489172130853167	0.6888446852616862	-0.160532322584261	1.489776476893465	0.6801530463786506	-0.1597270787595199	1.498489087331253	0.6834616516269488	-0.1616747116776832	1.483357674893169	0.6801811231665795	-0.1600215069681412	1.495933600129509	0.686430953740355	-0.161147070720118	1.503056563333338	0.6880785796332646	-0.1614433120008427	1.478751983680684	0.6872408679856264	-0.1604660134427852	1.499272023292562	0.6772792312527524	-0.1608444701830975	1.480741520399659	0.6879900085172453	-0.1595671914636662	1.498031449103096	0.6843544588988678	-0.1597810949260391	1.489350634918664	0.6886241613959656	-0.1608704294799111	1.476388551546884	0.6888562045900296	-0.1620599344318709	1.484717627561388	0.6862164082297594	-0.162149696759715	1.514867265267126	0.6855300764307063	-0.1595765076027514	1.487764307228518	0.6862650472458819	-0.1626899852990163	1.481995612772813	0.6831851815293525	-0.1618382655861285	1.504944276457164	0.6914747500979308	-0.1608068005637482	1.49866338225702	0.688647553080785	-0.161085401951705	1.498501886693349	0.6884843450901995	-0.1621991899035624	1.485458182698467	0.6880620193198513	-0.1602433711750352	1.496175536482253	0.6840190054420165	-0.16070450325067	1.481268228635468	0.6883267602038409	-0.161934742742836	1.510129254711206	0.6861991355032844	-0.1620096915824926	1.483276924466582	0.6859132322029206	-0.1606018364153222	1.508170059337341	0.6894056277814031	-0.1598307906761689	1.491541512258977	0.6848732624235044	-0.1587864040462602	1.496956295416634	0.6824233133564276	-0.1607051119646303	1.505438172594927	0.6863687464463338	-0.1601598524837848	1.472998362316701	0.6845115695786148	-0.1614446427728095	1.500582723423936	0.6940296076212499	-0.1612335291676044	1.514492219897575	0.6800841686856783	-0.1622772816348753
0.3749999140869565	1.392309667210171	0.9249353145743958	-0.15537038609348	-2.097050672429779	-0.6457458304686433	-3.471785455047782	-8.937040731029752	5.406044863518836	5.581261460275194	-1.403717633705134	7.085530841030632	-8.037483073733046e-10	-6.186599171215656e-09	26.27527114994771	-2.805063359586811	-10	-17.59752002088105	-2.51881496721453	-6.223041514473436e-09	4.437634927762345e-09	-12.40960249021264	1.363178029807918	7.087826415155343	9.397733811919064	233.9787552988021	-5.01289668135837	1.459703986929277	-2.197886696767036e-09	-0.1309614845160563	8.74711210438362	233.3186999742955	-5.13528989541642	1.465520440328971	8.495594276969892e-09	-0.1304639989862589	-7.111047053823896e-09	1.768711491633365	5.336616385251669e-09	5.590750905228907e-09	1.786486702525018	-2.870503858572719e-09	1.498647049828505	0.6831635108842714	-0.1596742164455308	1.501302919130556	0.6806823459881316	-0.1599980705935491	1.510168402078027	0.683913069536812	-0.1606297657062947	1.477795756036476	0.6823526381630892	-0.1615307445704011	1.50064021510458	0.6849223648789963	-0.1622368534805893	1.522327076156105	0.687853487240237	-0.1595651489005376	1.49731679090216	0.6864067175224351	-0.1604018071140363	1.496949611623323	0.6787173440784047	-0.1597214135972211	1.50753376678706	0.6808542412835651	-0.1617632646854879	1.495378259815773	0.6785219462068146	-0.1600447854905074	1.508822385428294	0.6844393609002896	-0.1610306617804999	1.513821325459258	0.6857990066680292	-0.1614225300913835	1.488847028522827	0.6845080298836692	-0.1606670021528592	1.507501930468337	0.6763531106817754	-0.1608349154807191	1.49079321964603	0.6851871644795824	-0.1595022856402029	1.505444587348171	0.6828976242313338	-0.1597264620960361	1.503252430337571	0.6864518320335831	-0.160756941212936	1.48862961124151	0.686521201067306	-0.1619121402881644	1.493867762279979	0.6839435702419522	-0.1621026278844351	1.528198463234905	0.683712807158755	-0.1594779408511478	1.499151946790806	0.683821189738628	-0.1625444487575782	1.491953008596085	0.6798567505212805	-0.1618703067869317	1.513977175799565	0.6898170885016541	-0.1606737556641948	1.511254786789833	0.6874190001783377	-0.1609784624645992	1.508148172918172	0.6853314037741618	-0.1624688297200721	1.495085025037772	0.6859450898275701	-0.1601411927750701	1.50757980696101	0.6817602084067654	-0.1605881096509593	1.493623967476197	0.6865275804842902	-0.1619542939824434	1.521499544282602	0.6838517290181635	-0.161944360107058	1.495261924629781	0.6836618807692632	-0.160376165415004	1.519310192447225	0.6875288658221441	-0.1600438851546678	1.502306431273281	0.6825445904100927	-0.1586319529131909	1.50820257828251	0.6795777573450293	-0.1607691943434507	1.516708103876771	0.6842710320261809	-0.1599963101932953	1.485118824843505	0.6826795247981021	-0.1612583076312244	1.511955188989125	0.6921782298570064	-0.1611647440271238	1.527117402568021	0.6786970270827629	-0.1622802947465206
